<svg width="20" height="12" viewBox="0 0 20 12" fill="none" xmlns="http://www.w3.org/2000/svg" >
<path d="M19.8478 5.5218C19.6956 5.30441 16.1739 0.130493 10 0.130493C3.82608 0.130493 0.304345 5.30441 0.152171 5.5218C-0.0434809 5.80441 -0.0434809 6.19571 0.152171 6.50006C0.304345 6.69571 3.82608 11.8696 10 11.8696C16.1739 11.8696 19.6956 6.69571 19.8478 6.47832C20.0435 6.19571 20.0435 5.80441 19.8478 5.5218ZM10 10.1305C5.80434 10.1305 2.93478 7.17397 1.95652 6.00006C2.93478 4.80441 5.78261 1.86962 10 1.86962C14.1956 1.86962 17.0652 4.82615 18.0435 6.00006C17.0435 7.19571 14.1956 10.1305 10 10.1305ZM10.5 2.43484C9.54347 2.30441 8.60869 2.54354 7.82608 3.13049C6.23913 4.32615 5.91304 6.58701 7.10869 8.17397C7.69565 8.95658 8.52174 9.43484 9.47826 9.58701C9.65217 9.60875 9.82608 9.63049 9.97826 9.63049C10.7609 9.63049 11.5 9.36962 12.1304 8.9131C13.7174 7.71745 14.0435 5.45658 12.8478 3.86962C12.3043 3.06528 11.4565 2.56528 10.5 2.43484ZM11.3696 7.84788C10.8913 8.21745 10.2826 8.36962 9.67391 8.28267C9.06521 8.19571 8.52174 7.86962 8.15217 7.39136C7.41304 6.36962 7.60869 4.9131 8.63043 4.15223C9.10869 3.78267 9.71739 3.63049 10.3261 3.71745C10.9348 3.80441 11.4783 4.13049 11.8478 4.60875C12.587 5.63049 12.3913 7.08701 11.3696 7.84788ZM11.2826 4.69571C11.4565 4.84788 11.5435 5.08701 11.5435 5.30441C11.5435 5.5218 11.4565 5.76093 11.2826 5.9131C11.1304 6.06528 10.8913 6.17397 10.6739 6.17397C10.4348 6.17397 10.2174 6.08701 10.0652 5.9131C9.8913 5.73919 9.80434 5.5218 9.80434 5.30441C9.80434 5.06528 9.8913 4.84788 10.0652 4.69571C10.2174 4.5218 10.4565 4.43484 10.6739 4.43484C10.913 4.45658 11.1304 4.54354 11.2826 4.69571Z" fill="#828282"/>
</svg>
