<svg width="18" height="20" viewBox="0 0 18 20" fill="none" xmlns="http://www.w3.org/2000/svg">
<path d="M17.7172 2L16.1738 0.413044C16.0433 0.282609 15.8694 0.217392 15.6955 0.217392C15.5216 0.217392 15.3477 0.282609 15.239 0.413044L6.13029 9.65217C6.06507 9.71739 6.02159 9.78261 5.97811 9.86957L4.95637 12.4565C4.86942 12.6957 4.91289 12.9783 5.10855 13.1522C5.23898 13.2826 5.39116 13.3478 5.56507 13.3478C5.65203 13.3478 5.71724 13.3261 5.8042 13.3043L8.36942 12.2826C8.45637 12.2391 8.52159 12.1957 8.58681 12.1304L17.6955 2.8913C17.9781 2.65217 17.9781 2.23913 17.7172 2ZM7.78246 11.1304L6.73898 11.5435L7.15203 10.4783L15.6955 1.80435L16.3477 2.45652L7.78246 11.1304ZM14.4346 10.3478V19.1304C14.4346 19.6087 13.9999 20 13.5216 20H1.17376C0.695504 20 0.304199 19.6087 0.304199 19.1304V2.56522C0.304199 2.08696 0.695504 1.73913 1.17376 1.73913H10.2172C10.6955 1.73913 11.0868 2.13044 11.0868 2.6087C11.0868 3.08696 10.6955 3.47826 10.2172 3.47826H2.04333V18.2609H12.6955V10.3478C12.6955 9.86957 13.0868 9.47826 13.5651 9.47826C14.0433 9.47826 14.4346 9.86957 14.4346 10.3478Z" fill="#4E5260"/>
</svg>
