<svg width="20" height="20" viewBox="0 0 20 20" fill="none" xmlns="http://www.w3.org/2000/svg">
  <path d="M17.0436 6.60859L16.3697 19.1738C16.348 19.6303 15.9567 19.9999 15.5002 19.9999H4.50017C4.04365 19.9999 3.65234 19.6303 3.6306 19.1738L2.95669 6.60859C2.93495 6.13033 3.30452 5.71729 3.78278 5.69555C4.26104 5.67381 4.67408 6.04337 4.69582 6.52163L5.32626 18.2608H14.6958L15.3263 6.52163C15.348 6.04337 15.761 5.67381 16.2393 5.69555C16.6958 5.71729 17.0654 6.13033 17.0436 6.60859ZM19.348 3.69555C19.348 4.17381 18.9567 4.56511 18.4784 4.56511H1.52191C1.04365 4.56511 0.652344 4.17381 0.652344 3.69555C0.652344 3.21729 1.04365 2.82598 1.52191 2.82598H6.30452V0.869459C6.30452 0.456416 6.58713 0.217285 7.00017 0.217285H13.0002C13.4132 0.217285 13.6958 0.456416 13.6958 0.869459V2.82598H18.4784C18.9567 2.82598 19.348 3.21729 19.348 3.69555ZM7.82626 2.82598H12.1741V1.73902H7.82626V2.82598ZM8.19582 16.9564C8.6306 16.9564 8.95669 16.5434 8.95669 16.1303L8.7393 6.73902C8.7393 6.32598 8.39147 5.97815 7.95669 5.97815C7.54365 5.97815 7.19582 6.32598 7.21756 6.76076L7.43495 16.1738C7.43495 16.5868 7.78278 16.9564 8.19582 16.9564ZM11.7828 16.9564C12.1958 16.9564 12.5436 16.6086 12.5436 16.1955L12.761 6.80424C12.761 6.3912 12.435 6.02163 12.0219 6.02163C11.5871 6.02163 11.261 6.34772 11.2393 6.76076L11.0219 16.1521C11.0002 16.5869 11.348 16.9564 11.7828 16.9564C11.761 16.9564 11.761 16.9564 11.7828 16.9564Z" fill="#828282"/>
</svg>
