<svg width="20" height="20" viewBox="0 0 20 20" fill="none" xmlns="http://www.w3.org/2000/svg">
<path d="M17.0436 6.6087L16.3697 19.1739C16.348 19.6304 15.9567 20 15.5002 20H4.50017C4.04365 20 3.65234 19.6304 3.6306 19.1739L2.95669 6.6087C2.93495 6.13043 3.30452 5.71739 3.78278 5.69565C4.26104 5.67391 4.67408 6.04348 4.69582 6.52174L5.32626 18.2609H14.6958L15.3263 6.52174C15.348 6.04348 15.761 5.67391 16.2393 5.69565C16.6958 5.71739 17.0654 6.13043 17.0436 6.6087ZM19.348 3.69565C19.348 4.17391 18.9567 4.56522 18.4784 4.56522H1.52191C1.04365 4.56522 0.652344 4.17391 0.652344 3.69565C0.652344 3.21739 1.04365 2.82609 1.52191 2.82609H6.30452V0.869566C6.30452 0.456522 6.58713 0.217392 7.00017 0.217392H13.0002C13.4132 0.217392 13.6958 0.456522 13.6958 0.869566V2.82609H18.4784C18.9567 2.82609 19.348 3.21739 19.348 3.69565ZM7.82626 2.82609H12.1741V1.73913H7.82626V2.82609ZM8.19582 16.9565C8.6306 16.9565 8.95669 16.5435 8.95669 16.1304L8.7393 6.73913C8.7393 6.32609 8.39147 5.97826 7.95669 5.97826C7.54365 5.97826 7.19582 6.32609 7.21756 6.76087L7.43495 16.1739C7.43495 16.587 7.78278 16.9565 8.19582 16.9565ZM11.7828 16.9565C12.1958 16.9565 12.5436 16.6087 12.5436 16.1957L12.761 6.80435C12.761 6.3913 12.435 6.02174 12.0219 6.02174C11.5871 6.02174 11.261 6.34783 11.2393 6.76087L11.0219 16.1522C11.0002 16.587 11.348 16.9565 11.7828 16.9565C11.761 16.9565 11.761 16.9565 11.7828 16.9565Z" fill="#EB5757"/>
</svg>
