<svg width="20" height="20" viewBox="0 0 20 20" fill="none" xmlns="http://www.w3.org/2000/svg">
<path d="M8.69565 12.0652C8.69565 11.6522 8.34783 11.3043 7.93478 11.3043H5.1087C4.69565 11.3043 4.34783 11.6522 4.34783 12.0652V14.8913C4.34783 15.3043 4.69565 15.6522 5.1087 15.6522H7.93478C8.34783 15.6522 8.69565 15.3043 8.69565 14.8913V12.0652ZM5.86957 12.8261H7.17391V14.1304H5.86957V12.8261ZM19.7609 5.52174L17.8261 3.56522V1.30435C17.8261 0.826088 17.4348 0.434784 16.9348 0.434784H3.06522C2.56522 0.434784 2.17391 0.826088 2.17391 1.30435V3.56522L0.23913 5.52174C0.0869565 5.67391 0 5.89131 0 6.13044V8.34783C0 8.82609 0.391304 9.13044 0.869565 9.13044H19.1304C19.6087 9.13044 20 8.82609 20 8.32609V6.13044C20 5.89131 19.913 5.67391 19.7609 5.52174ZM16.087 2.17391V3.26087H3.91304V2.17391H16.087ZM18.2609 7.39131H1.73913V6.47826L3.52174 4.78261H16.4783L18.2609 6.47826V7.39131ZM18.6957 10.8913V18.6957C18.6957 19.1739 18.3043 19.5652 17.8261 19.5652H14.8478C14.3696 19.5652 13.9783 19.2174 13.9783 18.7391V14.1304H11.9565V18.6957C11.9565 19.1739 11.5435 19.5652 11.0652 19.5652H2.19565C1.71739 19.5652 1.30435 19.1739 1.30435 18.6957V10.8913C1.30435 10.413 1.69565 10.0217 2.17391 10.0217C2.65217 10.0217 3.04348 10.413 3.04348 10.8913V17.8261H10.2174V13.1739C10.2174 12.6957 10.587 12.3913 11.0652 12.3913H14.8261C15.3043 12.3913 15.6304 12.6957 15.6304 13.1739V17.8261H16.9348V10.8913C16.9348 10.413 17.3261 10.0217 17.8043 10.0217C18.2826 10.0217 18.6957 10.413 18.6957 10.8913Z" fill="#4E5260"/>
</svg>
