<svg width="14" height="20" viewBox="0 0 14 20" fill="none" xmlns="http://www.w3.org/2000/svg">
<path d="M12.8696 7.17391H12.2174V5.67391C12.2174 2.45652 10.0435 0.217392 6.99999 0.217392C3.95652 0.217392 1.7826 2.45652 1.7826 5.67391V7.17391H1.13043C0.652169 7.17391 0.260864 7.56522 0.260864 8.04348V18.913C0.260864 19.3913 0.652169 19.7826 1.13043 19.7826H12.8696C13.3478 19.7826 13.7391 19.3913 13.7391 18.913V8.04348C13.7391 7.56522 13.3478 7.17391 12.8696 7.17391ZM3.52173 5.67391C3.52173 3.45652 4.95652 1.95652 6.99999 1.95652C9.04347 1.95652 10.4783 3.45652 10.4783 5.67391V7.17391H3.52173V5.67391ZM12 18.0435H1.99999V8.91304H12V18.0435Z" fill="#4E5260"/>
</svg>
