<svg width="16" height="14" viewBox="0 0 16 14" fill="none" xmlns="http://www.w3.org/2000/svg">
<path d="M15.3043 0.043457H0.695652C0.313043 0.043457 0 0.356501 0 0.739109V9.62607C0 10.0087 0.313043 10.3043 0.695652 10.3043H8.86957V13.2608C8.86957 13.5565 9.09565 13.8174 9.35652 13.9217C9.44348 13.9565 9.53043 13.9565 9.61739 13.9565C9.82609 13.9565 10.0174 13.8695 10.1565 13.713L13.0435 10.3043H15.3043C15.687 10.3043 16 10.0087 16 9.62607V0.739109C16 0.356501 15.687 0.043457 15.3043 0.043457ZM14.6087 8.91302H12.7304C12.5217 8.91302 12.2957 9.01737 12.1565 9.1565L10.2609 11.3652V9.62607C10.2609 9.24346 10.0174 8.91302 9.63478 8.91302H1.3913V1.43476H14.6087V8.91302ZM3.23478 3.86954C3.23478 3.48694 3.54783 3.17389 3.93043 3.17389H8.97391C9.35652 3.17389 9.66957 3.48694 9.66957 3.86954C9.66957 4.25215 9.35652 4.5652 8.97391 4.5652H3.93043C3.54783 4.5652 3.23478 4.25215 3.23478 3.86954ZM10.8696 4.40867C10.7478 4.28694 10.6609 4.09563 10.6609 3.92172C10.6609 3.73041 10.7304 3.5565 10.8696 3.43476C11.0087 3.29563 11.1826 3.22607 11.3565 3.22607C11.5478 3.22607 11.7217 3.29563 11.8435 3.43476C11.9652 3.5565 12.0522 3.7478 12.0522 3.92172C12.0522 4.11302 11.9826 4.28694 11.8435 4.40867C11.7043 4.5478 11.5304 4.61737 11.3565 4.61737C11.1826 4.59998 11.0087 4.53041 10.8696 4.40867Z" fill="#4E5260"/>
</svg>
