<svg width="20" height="20" viewBox="0 0 20 20" fill="none" xmlns="http://www.w3.org/2000/svg">
<path d="M20 2.82609C20 2.34782 19.6087 1.95652 19.1304 1.95652H0.869565C0.391304 1.95652 0 2.34782 0 2.82609V14.1304C0 14.6087 0.391304 15 0.869565 15H19.1304C19.6087 15 20 14.6087 20 14.1304V2.82609ZM18.2609 13.2609H1.73913V3.69565H18.2609V13.2609ZM15.1087 17.1739C15.1087 17.6522 14.7174 18.0435 14.2391 18.0435H5.76087C5.28261 18.0435 4.8913 17.6522 4.8913 17.1739C4.8913 16.6957 5.28261 16.3043 5.76087 16.3043H14.2174C14.7174 16.3043 15.1087 16.6957 15.1087 17.1739Z" fill="#FF814D"/>
</svg>
