<svg width="20" height="20" viewBox="0 0 20 20" fill="none" xmlns="http://www.w3.org/2000/svg">
<path d="M10 12.413C13.2174 12.413 15.8478 9.78261 15.8478 6.54348C15.8478 3.28261 13.2174 0.652176 10 0.652176C6.78261 0.652176 4.15217 3.28261 4.15217 6.52174C4.15217 9.78261 6.78261 12.413 10 12.413ZM10 2.39131C12.2609 2.39131 14.1087 4.23913 14.1087 6.52174C14.1087 8.80435 12.2609 10.6522 10 10.6522C7.73913 10.6522 5.8913 8.80435 5.8913 6.52174C5.8913 4.23913 7.73913 2.39131 10 2.39131ZM12.7174 12.9783C12.4348 12.8913 12.1087 12.9565 11.8913 13.1522L10 14.7609L8.1087 13.1522C7.86957 12.9565 7.56522 12.8913 7.28261 12.9783C6.06522 13.3696 0 15.4565 0 18.4783C0 18.9565 0.391304 19.3478 0.869565 19.3478H19.1304C19.6087 19.3478 20 18.9565 20 18.4783C20 15.4565 13.9348 13.3696 12.7174 12.9783ZM2.19565 17.6087C3.15217 16.587 5.45652 15.4565 7.36957 14.8043L9.43478 16.5652C9.76087 16.8478 10.2391 16.8478 10.5652 16.5652L12.6304 14.8043C14.5435 15.4783 16.8478 16.6087 17.8043 17.6087H2.19565Z" fill="#4E5260"/>
</svg>
